<svg width="182" height="103" viewBox="0 0 182 103" fill="none" xmlns="http://www.w3.org/2000/svg">
<path d="M23.415 59.6546C23.415 56.3409 26.1013 53.6546 29.415 53.6546H86.7068C87.7577 53.6546 88.3361 55.4596 87.6348 56.2423C86.3182 57.7117 85.1001 59.8092 85.1001 62.5405C85.1001 65.3888 86.4247 67.5857 87.8043 69.1015C88.5036 69.8698 87.9424 71.5918 86.9036 71.5918H29.415C26.1013 71.5918 23.415 68.9056 23.415 65.5918V59.6546Z" fill="white"/>
<path d="M57.1787 24.6382C57.1787 29.2699 53.7425 34.702 46.87 34.702C39.9975 34.702 36.5613 29.2699 36.5613 24.6382C36.5613 19.6447 39.8155 18.561 43.3427 18.6663C44.7904 18.7095 46.87 19.8116 46.87 19.8116C46.87 19.8116 48.9496 18.7095 50.3973 18.6663C53.9245 18.561 57.1787 19.6063 57.1787 24.6382Z" fill="#A32638" stroke="#EBC73B" stroke-width="2" stroke-linecap="round" stroke-linejoin="round"/>
<path d="M49.9197 31.6952C50.9935 31.28 53.3387 29.6507 54.1291 26.455" stroke="#EBC73B" stroke-width="2" stroke-linecap="round" stroke-linejoin="round"/>
<path d="M47.1362 19.4767C45.018 19.4967 43.0808 18.0601 42.5693 13.9622C44.5874 14.7488 47.8741 14.3802 47.1362 19.4767Z" fill="#A32638" stroke="#EBC73B" stroke-width="2" stroke-linecap="round" stroke-linejoin="round"/>
<path d="M47.1707 19.4108C48.1156 18.2296 49.5331 14.5786 48.3089 11.9155" stroke="#EBC73B" stroke-width="2" stroke-linecap="round" stroke-linejoin="round"/>
<path d="M41.2009 26.0121C40.7599 25.1857 40.6354 23.8225 41.0856 22.7745" stroke="#EBC73B" stroke-width="2" stroke-linecap="round" stroke-linejoin="round"/>
<path d="M17.6942 40.4214C17.6942 37.7593 19.8523 35.6012 22.5145 35.6012H79.9788C79.9788 35.6012 75.5289 38.4734 75.0656 43.9014C74.6023 49.3294 79.9788 52.1639 79.9788 52.1639H22.5145C19.8523 52.1639 17.6942 50.0058 17.6942 47.3437V40.4214Z" fill="#A32638"/>
<path fill-rule="evenodd" clip-rule="evenodd" d="M80.8534 36.9491C80.8527 36.9496 80.852 36.95 80.8512 36.9505L80.8357 36.9611C80.8152 36.9751 80.7799 36.9997 80.7317 37.0347C80.6352 37.1049 80.488 37.2164 80.3056 37.3685C79.9396 37.6739 79.4401 38.1362 78.9275 38.7478C77.8988 39.9753 76.8621 41.7482 76.6666 44.038C76.4866 46.1471 77.4246 47.787 78.5267 48.9757C79.0758 49.5679 79.6425 50.0201 80.0724 50.3234C80.2858 50.474 80.4614 50.585 80.5785 50.6556C80.6369 50.6908 80.6804 50.7158 80.7063 50.7303C80.7193 50.7376 80.7278 50.7423 80.7315 50.7443L80.7303 50.7437L80.7293 50.7432C80.7306 50.7439 80.7319 50.7446 80.7332 50.7453C81.3834 51.0909 81.7156 51.8346 81.5386 52.5499C81.3611 53.267 80.7176 53.7707 79.9789 53.7707H22.5146C18.965 53.7707 16.0875 50.8932 16.0875 47.3437V40.4214C16.0875 36.8719 18.965 33.9944 22.5145 33.9944H79.9789C80.6913 33.9944 81.3187 34.4636 81.5201 35.147C81.7209 35.8284 81.4504 36.5606 80.8554 36.9478C80.8547 36.9482 80.854 36.9487 80.8534 36.9491ZM77.8316 50.5572C78.9502 51.6216 79.9789 52.1639 79.9789 52.1639H22.5146C19.8524 52.1639 17.6943 50.0058 17.6943 47.3437V40.4214C17.6943 37.7593 19.8524 35.6012 22.5145 35.6012H79.9789C79.9789 35.6012 79.1356 36.1455 78.145 37.2079C76.8601 38.5861 75.3273 40.8363 75.0657 43.9014C74.805 46.9552 76.3928 49.1881 77.8316 50.5572Z" fill="white"/>
<path d="M13.5708 77.9028C13.5708 75.2406 15.7289 73.0825 18.3911 73.0825H75.8554C75.8554 73.0825 71.8195 75.6058 71.1492 81.2585C70.4789 86.9112 75.8554 89.6452 75.8554 89.6452H18.3911C15.7289 89.6452 13.5708 87.4871 13.5708 84.825V77.9028Z" fill="#A32638"/>
<path fill-rule="evenodd" clip-rule="evenodd" d="M76.7111 74.4424C76.7109 74.4425 76.7113 74.4423 76.7111 74.4424C76.7102 74.443 76.7093 74.4435 76.7084 74.4441C76.7084 74.4441 76.7085 74.444 76.7084 74.4441M74.0614 74.6892C75.0287 73.5993 75.8553 73.0825 75.8553 73.0825H18.391C15.7289 73.0825 13.5707 75.2406 13.5707 77.9028V84.825C13.5707 87.4871 15.7289 89.6452 18.391 89.6452H75.8553C75.8553 89.6452 74.8125 89.1149 73.7026 88.0385C72.2924 86.6708 70.7741 84.4216 71.1492 81.2585C71.5161 78.1641 72.8916 76.0075 74.0614 74.6892ZM76.5848 88.2136C76.5864 88.2144 76.588 88.2152 76.5895 88.216C76.5901 88.2163 76.5903 88.2164 76.5895 88.216C77.2481 88.5543 77.5905 89.2992 77.4178 90.0197C77.2447 90.7424 76.5985 91.252 75.8553 91.252H18.391C14.8415 91.252 11.964 88.3745 11.964 84.825V77.9028C11.964 74.3532 14.8415 71.4757 18.391 71.4757H75.8553C76.5721 71.4757 77.2021 71.9505 77.3998 72.6394C77.5966 73.3253 77.3174 74.0583 76.7152 74.4398C76.714 74.4406 76.7123 74.4416 76.7111 74.4424M76.5885 88.2155C76.5853 88.2138 76.5773 88.2096 76.5649 88.2028C76.5402 88.1893 76.4979 88.1658 76.4409 88.1322C76.3267 88.0649 76.1546 87.9582 75.9456 87.8123C75.5246 87.5183 74.9714 87.0772 74.4412 86.4924C73.3876 85.3302 72.4804 83.6766 72.7447 81.4477C73.0369 78.9842 74.0569 77.2189 74.9978 76.0674C75.47 75.4895 75.9206 75.0687 76.2445 74.7981C76.406 74.6631 76.5346 74.5667 76.6167 74.5079C76.6576 74.4785 76.6868 74.4587 76.7025 74.4482L76.7111 74.4424L76.7094 74.4434L76.7084 74.4441M76.5885 88.2155L76.5877 88.2151L76.5859 88.2142" fill="white"/>
<path d="M28.2284 58.5093H65.6834" stroke="#A32638" stroke-width="2" stroke-linecap="round" stroke-linejoin="round"/>
<path d="M28.2284 62.6234H48.674" stroke="#A32638" stroke-width="2" stroke-linecap="round" stroke-linejoin="round"/>
<path d="M61.8176 35.0498H68.4751V44.4248C68.4751 45.3157 67.3979 45.7619 66.768 45.1319L65.8535 44.2174C65.4629 43.8269 64.8298 43.8269 64.4392 44.2174L63.5247 45.1319C62.8948 45.7619 61.8176 45.3157 61.8176 44.4248V35.0498Z" fill="white"/>
<path d="M17.2324 77.2499H54.6874" stroke="white" stroke-width="2" stroke-linecap="round" stroke-linejoin="round"/>
<path d="M17.2324 81.364H37.678" stroke="white" stroke-width="2" stroke-linecap="round" stroke-linejoin="round"/>
<path d="M22.0432 39.8969H53.4848" stroke="white" stroke-width="2" stroke-linecap="round" stroke-linejoin="round"/>
<path d="M92.77 18.36H98.08C100.16 18.36 101.63 18.65 102.49 19.23C103.37 19.79 103.92 20.73 104.14 22.05C104.38 23.37 104.5 25.58 104.5 28.68C104.5 31.78 104.38 33.99 104.14 35.31C103.92 36.63 103.37 37.58 102.49 38.16C101.63 38.72 100.16 39 98.08 39H92.77V18.36ZM97.99 35.91C99.05 35.91 99.77 35.79 100.15 35.55C100.53 35.31 100.78 34.74 100.9 33.84C101.02 32.92 101.08 31.2 101.08 28.68C101.08 26.18 101.02 24.47 100.9 23.55C100.78 22.63 100.53 22.05 100.15 21.81C99.77 21.57 99.05 21.45 97.99 21.45H96.19V35.91H97.99ZM114.614 37.08H114.434C114.174 37.84 113.754 38.39 113.174 38.73C112.594 39.07 111.854 39.24 110.954 39.24C109.954 39.24 109.194 39.05 108.674 38.67C108.154 38.27 107.804 37.68 107.624 36.9C107.464 36.1 107.384 35.01 107.384 33.63V23.7H110.624V32.13C110.624 33.49 110.654 34.44 110.714 34.98C110.794 35.5 110.954 35.84 111.194 36C111.434 36.14 111.854 36.21 112.454 36.21C113.094 36.21 113.554 36.08 113.834 35.82C114.114 35.56 114.294 35.13 114.374 34.53C114.454 33.93 114.494 32.98 114.494 31.68V23.7H117.734V39H114.734L114.614 37.08ZM128.72 38.79C127.72 39.09 126.63 39.24 125.45 39.24C123.99 39.24 122.91 38.97 122.21 38.43C121.51 37.89 121.05 37.08 120.83 36C120.61 34.92 120.5 33.37 120.5 31.35C120.5 29.33 120.62 27.77 120.86 26.67C121.12 25.57 121.6 24.76 122.3 24.24C123 23.72 124.04 23.46 125.42 23.46C126.02 23.46 126.62 23.5 127.22 23.58C127.82 23.66 128.29 23.77 128.63 23.91V26.49C127.79 26.33 127.01 26.25 126.29 26.25C125.51 26.25 124.95 26.37 124.61 26.61C124.27 26.83 124.04 27.28 123.92 27.96C123.8 28.64 123.74 29.77 123.74 31.35C123.74 32.93 123.8 34.07 123.92 34.77C124.04 35.45 124.27 35.9 124.61 36.12C124.95 36.34 125.51 36.45 126.29 36.45C127.07 36.45 127.88 36.37 128.72 36.21V38.79ZM138.314 39L135.494 32.76H134.414V39H131.174V16.71H134.414V29.94H135.494L138.374 23.7H141.704L138.164 31.05L141.764 39H138.314ZM97.63 65.24C96.81 65.24 95.91 65.2 94.93 65.12C93.95 65.04 93.1 64.93 92.38 64.79V61.88C94.08 62.06 95.51 62.15 96.67 62.15C98.07 62.15 98.96 61.93 99.34 61.49C99.54 61.29 99.67 61.02 99.73 60.68C99.79 60.32 99.82 59.84 99.82 59.24C99.82 58.4 99.77 57.8 99.67 57.44C99.57 57.08 99.37 56.82 99.07 56.66C98.79 56.48 98.29 56.33 97.57 56.21L94.6 55.7C93.6 55.54 92.91 55.01 92.53 54.11C92.17 53.21 91.99 51.91 91.99 50.21C91.99 48.61 92.22 47.37 92.68 46.49C93.14 45.59 93.79 44.97 94.63 44.63C95.47 44.29 96.54 44.12 97.84 44.12C98.68 44.12 99.53 44.18 100.39 44.3C101.27 44.4 101.97 44.52 102.49 44.66V47.51C101.45 47.31 100.23 47.21 98.83 47.21C98.03 47.21 97.41 47.25 96.97 47.33C96.53 47.41 96.2 47.55 95.98 47.75C95.74 47.95 95.58 48.22 95.5 48.56C95.44 48.9 95.41 49.41 95.41 50.09C95.41 50.81 95.45 51.33 95.53 51.65C95.61 51.95 95.75 52.17 95.95 52.31C96.17 52.45 96.53 52.56 97.03 52.64L99.82 53.12C100.6 53.24 101.23 53.47 101.71 53.81C102.21 54.15 102.59 54.72 102.85 55.52C103.11 56.34 103.24 57.43 103.24 58.79C103.24 60.57 103.03 61.93 102.61 62.87C102.19 63.79 101.58 64.42 100.78 64.76C100 65.08 98.95 65.24 97.63 65.24ZM106.469 65V52.49H104.459V49.7H106.469V45.26H109.709V49.7H112.169V52.49H109.709V65H106.469ZM121.469 63.08H121.289C121.029 63.84 120.609 64.39 120.029 64.73C119.449 65.07 118.709 65.24 117.809 65.24C116.809 65.24 116.049 65.05 115.529 64.67C115.009 64.27 114.659 63.68 114.479 62.9C114.319 62.1 114.239 61.01 114.239 59.63V49.7H117.479V58.13C117.479 59.49 117.509 60.44 117.569 60.98C117.649 61.5 117.809 61.84 118.049 62C118.289 62.14 118.709 62.21 119.309 62.21C119.949 62.21 120.409 62.08 120.689 61.82C120.969 61.56 121.149 61.13 121.229 60.53C121.309 59.93 121.349 58.98 121.349 57.68V49.7H124.589V65H121.589L121.469 63.08ZM131.346 65.24C130.306 65.24 129.496 65.02 128.916 64.58C128.356 64.12 127.956 63.33 127.716 62.21C127.476 61.09 127.356 59.49 127.356 57.41C127.356 55.35 127.466 53.76 127.686 52.64C127.926 51.5 128.326 50.69 128.886 50.21C129.446 49.71 130.246 49.46 131.286 49.46C132.946 49.46 134.026 50.09 134.526 51.35H134.706V42.71H137.946V65H134.946L134.826 63.11H134.616C134.196 64.53 133.106 65.24 131.346 65.24ZM132.696 62.24C133.196 62.24 133.576 62.16 133.836 62C134.096 61.82 134.296 61.52 134.436 61.1C134.616 60.46 134.706 59.21 134.706 57.35C134.706 55.81 134.656 54.74 134.556 54.14C134.456 53.5 134.266 53.06 133.986 52.82C133.706 52.58 133.276 52.46 132.696 52.46C132.016 52.46 131.536 52.56 131.256 52.76C130.996 52.94 130.816 53.35 130.716 53.99C130.636 54.63 130.596 55.75 130.596 57.35C130.596 58.95 130.636 60.07 130.716 60.71C130.816 61.35 130.996 61.77 131.256 61.97C131.536 62.15 132.016 62.24 132.696 62.24ZM145.875 71C145.155 71 144.415 70.97 143.655 70.91C142.915 70.85 142.305 70.78 141.825 70.7V68.09C143.025 68.13 144.135 68.15 145.155 68.15C146.135 68.15 146.825 68.05 147.225 67.85C147.645 67.65 147.905 67.28 148.005 66.74C148.125 66.22 148.185 65.32 148.185 64.04V63.05H147.975C147.555 64.39 146.455 65.06 144.675 65.06C143.595 65.06 142.795 64.84 142.275 64.4C141.775 63.96 141.445 63.3 141.285 62.42C141.145 61.54 141.075 60.26 141.075 58.58V49.7H144.315V58.01C144.315 59.39 144.345 60.35 144.405 60.89C144.485 61.41 144.645 61.75 144.885 61.91C145.125 62.05 145.545 62.12 146.145 62.12C146.785 62.12 147.245 61.99 147.525 61.73C147.825 61.47 148.005 61.05 148.065 60.47C148.145 59.89 148.185 58.93 148.185 57.59V49.7H151.425V63.08C151.425 65.16 151.305 66.73 151.065 67.79C150.845 68.85 150.345 69.65 149.565 70.19C148.785 70.73 147.555 71 145.875 71Z" fill="white"/>
<path d="M101.47 91V82.21H96.19V91H92.77V70.36H96.19V79H101.47V70.36H104.89V91H101.47ZM115.405 89.08H115.225C114.965 89.84 114.545 90.39 113.965 90.73C113.385 91.07 112.645 91.24 111.745 91.24C110.745 91.24 109.985 91.05 109.465 90.67C108.945 90.27 108.595 89.68 108.415 88.9C108.255 88.1 108.175 87.01 108.175 85.63V75.7H111.415V84.13C111.415 85.49 111.445 86.44 111.505 86.98C111.585 87.5 111.745 87.84 111.985 88C112.225 88.14 112.645 88.21 113.245 88.21C113.885 88.21 114.345 88.08 114.625 87.82C114.905 87.56 115.085 87.13 115.165 86.53C115.245 85.93 115.285 84.98 115.285 83.68V75.7H118.525V91H115.525L115.405 89.08ZM128.311 91.24C126.531 91.24 125.431 90.53 125.011 89.11H124.801L124.681 91H121.711V68.71H124.951V77.35H125.131C125.611 76.09 126.691 75.46 128.371 75.46C129.411 75.46 130.201 75.71 130.741 76.21C131.301 76.69 131.691 77.49 131.911 78.61C132.151 79.73 132.271 81.32 132.271 83.38C132.271 85.48 132.151 87.09 131.911 88.21C131.671 89.33 131.271 90.12 130.711 90.58C130.151 91.02 129.351 91.24 128.311 91.24ZM126.931 88.24C127.611 88.24 128.081 88.15 128.341 87.97C128.621 87.77 128.801 87.36 128.881 86.74C128.981 86.1 129.031 84.97 129.031 83.35C129.031 81.75 128.981 80.63 128.881 79.99C128.801 79.35 128.621 78.94 128.341 78.76C128.081 78.56 127.611 78.46 126.931 78.46C126.451 78.46 126.081 78.54 125.821 78.7C125.561 78.84 125.361 79.11 125.221 79.51C125.041 80.13 124.951 81.41 124.951 83.35C124.951 85.19 125.021 86.4 125.161 86.98C125.281 87.46 125.471 87.79 125.731 87.97C126.011 88.15 126.411 88.24 126.931 88.24Z" fill="#EBC73B"/>
</svg>
