<svg xmlns="http://www.w3.org/2000/svg" viewBox="0 0 32 32"><title>58-Box-Add</title><g id="_58-Box-Add" data-name="58-Box-Add"><path d="M29,0H3A3,3,0,0,0,0,3V29a3,3,0,0,0,3,3H23V30H3a1,1,0,0,1-1-1V3A1,1,0,0,1,3,2h8V13a1,1,0,0,0,1,1h8a1,1,0,0,0,1-1V2h8a1,1,0,0,1,1,1V17h2V3A3,3,0,0,0,29,0ZM19,9H13V2h6Z"/><path d="M6,21a1,1,0,0,0-1,1v4a1,1,0,0,0,1,1h4a1,1,0,0,0,1-1V22a1,1,0,0,0-1-1Zm3,4H7V23H9Z"/><rect x="13" y="21" width="8" height="2"/><rect x="13" y="25" width="6" height="2"/><polygon points="29 21 27 21 27 24 24 24 24 26 27 26 27 29 29 29 29 26 32 26 32 24 29 24 29 21"/></g></svg>